<mxfile host="app.diagrams.net" modified="2020-08-25T03:30:38.570Z" agent="5.0 (Windows NT 10.0; Win64; x64) AppleWebKit/537.36 (KHTML, like Gecko) Chrome/83.0.4103.61 Safari/537.36" etag="1_rDGoaaBk_Tp1FzA5rJ" version="13.6.4" type="github">
  <diagram name="Page-1" id="74e2e168-ea6b-b213-b513-2b3c1d86103e">
    <mxGraphModel dx="1422" dy="839" grid="1" gridSize="10" guides="1" tooltips="1" connect="1" arrows="1" fold="1" page="1" pageScale="1" pageWidth="1100" pageHeight="850" background="#ffffff" math="0" shadow="0">
      <root>
        <mxCell id="0" />
        <mxCell id="1" parent="0" />
        <mxCell id="XUNvr__LL5xpsNMYC2iP-3" value="" style="edgeStyle=orthogonalEdgeStyle;rounded=0;orthogonalLoop=1;jettySize=auto;html=1;" edge="1" parent="1" source="XUNvr__LL5xpsNMYC2iP-1" target="XUNvr__LL5xpsNMYC2iP-2">
          <mxGeometry relative="1" as="geometry" />
        </mxCell>
        <mxCell id="XUNvr__LL5xpsNMYC2iP-1" value="加载路网服务" style="ellipse;whiteSpace=wrap;html=1;" vertex="1" parent="1">
          <mxGeometry x="360" y="170" width="120" height="80" as="geometry" />
        </mxCell>
        <mxCell id="XUNvr__LL5xpsNMYC2iP-5" value="" style="edgeStyle=orthogonalEdgeStyle;rounded=0;orthogonalLoop=1;jettySize=auto;html=1;" edge="1" parent="1" source="XUNvr__LL5xpsNMYC2iP-2" target="XUNvr__LL5xpsNMYC2iP-4">
          <mxGeometry relative="1" as="geometry" />
        </mxCell>
        <mxCell id="XUNvr__LL5xpsNMYC2iP-2" value="获取图层" style="whiteSpace=wrap;html=1;" vertex="1" parent="1">
          <mxGeometry x="360" y="340" width="120" height="60" as="geometry" />
        </mxCell>
        <mxCell id="XUNvr__LL5xpsNMYC2iP-4" value="下拉框&lt;br&gt;绑定change事件" style="whiteSpace=wrap;html=1;" vertex="1" parent="1">
          <mxGeometry x="560" y="340" width="120" height="60" as="geometry" />
        </mxCell>
      </root>
    </mxGraphModel>
  </diagram>
</mxfile>
